<?xml version="1.0" standalone="no"?>
<!DOCTYPE svg PUBLIC "-//W3C//DTD SVG 20010904//EN"
 "http://www.w3.org/TR/2001/REC-SVG-20010904/DTD/svg10.dtd">
<svg version="1.0" xmlns="http://www.w3.org/2000/svg"
 width="2301.000000pt" height="372.000000pt" viewBox="0 0 2301.000000 372.000000"
 preserveAspectRatio="xMidYMid meet">

<g transform="translate(0.000000,372.000000) scale(0.100000,-0.100000)"
fill="#000000" stroke="none">
<path d="M1270 2538 c0 -486 -3 -900 -6 -920 -6 -35 -7 -36 -43 -31 -51 9
-153 56 -231 108 -92 61 -251 221 -310 310 -58 90 -112 217 -108 253 l3 27
273 3 272 2 0 95 0 95 -395 0 -395 0 6 -42 c35 -253 98 -434 204 -595 129
-195 361 -365 590 -433 89 -27 226 -50 293 -50 l47 0 0 814 0 814 68 4 c37 1
308 1 602 -2 l535 -5 3 -814 2 -814 68 6 c37 4 79 7 94 7 l28 0 2 458 3 457
348 3 347 2 0 -25 c0 -14 -10 -53 -21 -87 -77 -224 -235 -407 -449 -519 -36
-18 -68 -38 -72 -44 -4 -5 -8 -52 -8 -102 0 -72 3 -93 14 -93 21 0 214 101
285 149 80 55 208 176 265 252 58 77 128 217 160 317 28 88 56 242 56 305 l0
37 -452 0 c-249 0 -459 4 -465 8 -10 6 -13 115 -15 468 l-3 459 -92 3 -93 3 0
-114 0 -114 -432 -6 c-238 -3 -473 -4 -523 -1 -49 2 -127 4 -172 4 l-82 0 -3
113 -3 112 -97 3 -98 3 0 -883z"/>
<path d="M15195 3142 c-6 -4 -26 -31 -44 -59 -33 -53 -44 -62 -56 -43 -11 18
-83 50 -113 50 -16 0 -47 -10 -70 -22 -39 -22 -112 -82 -112 -93 0 -3 30 -5
68 -5 55 0 71 4 85 20 9 11 23 20 30 20 8 0 22 -9 32 -20 15 -16 31 -20 87
-20 68 0 81 7 53 30 -26 22 -17 33 21 25 35 -6 39 -4 95 57 32 35 59 64 59 66
0 6 -126 1 -135 -6z"/>
<path d="M7206 3112 c-2 -4 23 -38 56 -75 58 -65 61 -67 107 -67 26 0 56 -7
69 -16 40 -28 36 -7 -18 80 l-53 86 -78 0 c-43 0 -80 -3 -83 -8z"/>
<path d="M17842 3103 c-19 -18 -72 -102 -85 -136 -6 -15 -3 -17 14 -12 11 4
40 7 64 7 49 0 51 1 125 81 63 68 59 77 -36 77 -45 0 -67 -5 -82 -17z"/>
<path d="M19980 3114 c0 -3 28 -37 61 -75 l62 -69 58 0 c47 0 59 -3 59 -16 0
-13 -11 -15 -57 -13 l-58 3 -32 -85 c-17 -46 -59 -160 -93 -254 -34 -93 -79
-217 -101 -274 -21 -58 -37 -106 -36 -107 2 -2 40 -5 85 -8 l82 -6 21 73 c12
39 26 75 31 78 7 5 154 4 230 -1 3 0 10 -14 13 -32 4 -17 15 -50 25 -72 l17
-41 81 0 c45 0 82 4 82 8 0 5 -11 36 -24 70 -13 34 -59 157 -101 272 -139 381
-153 416 -195 486 l-42 69 -84 0 c-46 0 -84 -3 -84 -6z m234 -506 c16 -50 30
-98 33 -105 4 -10 -12 -13 -72 -13 -56 0 -76 3 -73 13 25 88 65 197 74 197 6
0 23 -41 38 -92z"/>
<path d="M21805 3108 c-47 -26 -146 -121 -136 -131 5 -5 37 -10 70 -11 53 -1
63 2 90 29 l31 29 30 -32 c29 -32 31 -33 92 -26 35 4 65 8 67 10 7 6 -12 26
-80 84 -58 50 -75 60 -107 60 -20 0 -46 -6 -57 -12z"/>
<path d="M7637 2948 c-14 -85 -44 -110 -82 -68 -9 10 -34 24 -54 31 -20 6 -40
15 -45 20 -6 5 -41 9 -79 9 -57 0 -81 -6 -142 -34 -64 -30 -79 -41 -108 -88
-44 -69 -47 -78 -57 -172 -12 -98 3 -213 35 -276 29 -57 99 -123 151 -141 22
-8 76 -14 125 -13 76 0 92 3 140 31 103 57 148 147 156 311 4 69 1 108 -12
153 l-17 61 40 36 c38 36 62 88 62 138 0 16 -8 23 -31 28 -64 12 -76 8 -82
-26z m-220 -150 c51 -25 76 -62 93 -137 24 -103 -1 -231 -56 -286 -29 -29 -42
-35 -77 -35 -56 0 -100 28 -126 82 -17 37 -21 62 -21 149 0 89 4 111 25 157
20 43 32 56 67 72 53 24 43 24 95 -2z"/>
<path d="M6997 2963 c-4 -3 -7 -26 -7 -50 0 -35 -6 -49 -27 -69 -14 -13 -31
-23 -37 -21 -6 2 -11 28 -11 58 l0 54 -80 0 -80 0 -6 -275 c-3 -151 -6 -276
-7 -278 -1 -1 -17 -11 -34 -22 -50 -30 -110 -27 -150 9 l-33 29 -3 271 -3 271
-79 0 -80 0 0 -258 c0 -336 11 -376 122 -438 49 -27 61 -29 153 -29 92 0 104
2 154 30 55 30 92 70 110 117 6 15 11 103 11 196 1 93 5 173 8 179 4 5 25 13
47 17 54 10 100 40 113 74 19 48 33 114 28 128 -6 15 -96 21 -109 7z"/>
<path d="M5036 2933 c-9 -10 -7 -101 3 -107 5 -3 54 -9 110 -12 l101 -7 0
-293 0 -292 76 -4 c42 -2 78 -1 80 1 2 2 4 136 4 298 l0 293 105 0 105 0 0 65
0 66 -289 -1 c-159 -1 -292 -4 -295 -7z"/>
<path d="M5740 2579 l0 -364 79 0 78 -1 -4 91 c-2 49 0 110 4 135 l9 45 44 0
45 0 67 -135 66 -135 86 0 c47 0 86 3 86 8 0 12 -78 165 -118 231 -30 51 -33
60 -19 67 38 22 81 65 93 96 18 43 18 166 0 201 -8 15 -27 39 -43 54 -50 48
-102 59 -295 65 l-178 6 0 -364z m341 202 c33 -34 39 -83 14 -130 -18 -37 -31
-41 -120 -41 -67 0 -73 2 -79 23 -8 29 -8 106 0 146 l7 31 74 0 c69 0 77 -2
104 -29z"/>
<path d="M7810 2576 l0 -364 78 2 77 1 -3 212 c-2 133 0 213 6 213 12 0 40
-44 157 -245 112 -191 107 -186 164 -181 25 2 61 5 79 5 l32 1 -2 358 -3 357
-77 3 -78 3 0 -216 c0 -118 -3 -215 -7 -215 -5 0 -15 12 -24 28 -9 15 -58 95
-109 177 -50 83 -101 167 -111 188 l-19 37 -80 0 -80 0 0 -364z"/>
<path d="M8710 2923 c-41 -13 -68 -30 -105 -67 -72 -73 -90 -129 -90 -281 0
-140 16 -199 71 -264 94 -110 285 -132 442 -53 70 36 74 48 70 220 l-3 127
-142 3 -143 3 0 -66 0 -66 63 2 62 3 0 -59 c0 -53 -3 -61 -25 -72 -14 -7 -49
-13 -78 -13 -65 0 -102 23 -135 83 -19 36 -22 57 -22 152 0 99 3 115 25 155
31 54 91 93 134 85 43 -8 93 -50 101 -85 6 -28 9 -30 55 -30 26 0 61 3 78 6
29 6 31 9 25 38 -8 43 -36 97 -65 123 -66 62 -213 88 -318 56z"/>
<path d="M9507 2933 c-4 -3 -7 -71 -7 -149 l0 -143 -42 -3 c-41 -3 -43 -5 -46
-37 -4 -41 4 -50 47 -53 18 -1 35 -7 37 -13 2 -5 5 -80 6 -165 l3 -155 161 1
161 1 64 34 c68 37 110 86 142 167 28 72 27 231 -2 310 -42 111 -114 173 -229
198 -68 14 -283 20 -295 7z m298 -147 c64 -34 85 -87 85 -212 0 -86 -3 -107
-23 -145 -34 -65 -78 -91 -147 -87 l-55 3 0 95 0 95 53 3 52 3 0 50 0 49 -55
0 -55 0 0 78 c0 49 5 83 12 90 17 17 81 6 133 -22z"/>
<path d="M10353 2928 c-6 -7 -22 -44 -36 -83 -14 -38 -60 -164 -102 -280 -42
-115 -89 -245 -105 -288 l-28 -78 31 8 c18 4 58 8 90 7 l58 0 21 72 22 73 110
3 c61 2 116 2 122 0 6 -2 19 -32 29 -67 9 -35 22 -69 29 -74 7 -6 39 -10 72
-9 32 1 69 -2 82 -6 23 -9 23 -8 8 30 -24 61 -154 417 -201 549 -24 66 -46
128 -50 138 -6 14 -20 17 -75 17 -42 0 -71 -5 -77 -12z m111 -320 c16 -50 30
-98 33 -105 4 -10 -12 -13 -72 -13 -56 0 -76 3 -73 13 25 88 65 197 74 197 6
0 23 -41 38 -92z"/>
<path d="M10850 2576 c0 -350 1 -366 19 -366 10 0 46 3 80 6 l61 7 -2 356 -3
356 -77 3 -78 4 0 -366z"/>
<path d="M11440 2580 l0 -360 49 0 c27 0 63 -3 80 -6 l31 -6 0 150 0 151 33 3
c17 2 78 2 135 0 l102 -3 0 -145 0 -144 80 0 80 0 -2 358 -3 357 -77 3 -78 3
0 -151 0 -150 -134 0 -133 0 -7 31 c-3 17 -6 85 -6 150 l0 119 -75 0 -75 0 0
-360z"/>
<path d="M12355 2926 c-92 -29 -135 -66 -181 -156 -27 -53 -29 -61 -29 -195 0
-122 3 -146 22 -186 29 -64 77 -116 137 -147 44 -23 63 -27 141 -27 78 0 97 4
141 27 105 55 154 149 162 310 9 203 -68 332 -224 373 -69 18 -115 18 -169 1z
m133 -125 c52 -27 71 -51 88 -112 32 -121 13 -248 -46 -310 -32 -33 -43 -39
-79 -39 -59 0 -97 26 -126 84 -21 42 -25 64 -25 140 0 108 11 154 47 197 24
28 72 57 96 59 4 0 24 -9 45 -19z"/>
<path d="M13027 2920 c-82 -26 -120 -59 -159 -137 -33 -67 -33 -68 -32 -213 0
-124 3 -151 21 -190 28 -62 66 -105 121 -137 41 -24 55 -27 146 -27 90 0 107
3 151 26 28 14 62 39 78 55 29 31 72 137 62 154 -4 5 -40 9 -81 9 l-74 0 -16
-40 c-22 -56 -56 -80 -111 -80 -54 0 -93 21 -119 64 -16 26 -19 51 -19 166 0
117 3 140 20 170 25 43 99 83 135 75 48 -12 89 -53 101 -102 l12 -45 51 6 c28
3 63 6 79 6 25 0 27 3 21 28 -15 70 -30 99 -72 144 -75 80 -195 107 -315 68z"/>
<path d="M13780 2576 l0 -364 78 1 77 2 0 102 c0 102 0 103 32 135 21 21 36
29 42 23 13 -13 146 -227 154 -247 5 -14 22 -16 101 -16 53 1 96 5 96 9 0 7
-73 123 -196 310 -24 37 -44 73 -44 80 0 8 22 41 48 74 26 33 80 100 120 150
40 49 72 93 72 97 0 5 -45 8 -100 8 -92 0 -100 -2 -111 -22 -24 -46 -201 -268
-209 -263 -4 3 -8 35 -8 72 0 38 0 101 -1 141 l-1 72 -75 0 -75 0 0 -364z"/>
<path d="M14450 2575 l0 -364 80 0 80 1 0 364 0 364 -80 0 -80 0 0 -365z"/>
<path d="M14740 2581 l0 -359 38 -4 c20 -3 131 -6 245 -7 l208 -2 -3 63 -3 63
-161 3 -162 2 -6 35 c-4 19 -4 57 0 85 l7 50 138 0 139 0 0 65 0 65 -139 0
-139 0 -4 43 c-3 23 -2 61 0 85 l5 42 158 0 159 0 0 65 0 65 -240 0 -240 0 0
-359z"/>
<path d="M15340 2576 l0 -364 78 1 77 2 0 205 c0 127 4 207 10 209 6 2 62 -84
125 -191 63 -107 121 -202 128 -211 10 -12 29 -15 83 -13 38 2 71 5 73 7 7 7
11 300 9 517 l-3 202 -75 0 -75 0 0 -215 c0 -118 -3 -215 -7 -215 -5 0 -15 12
-24 28 -9 15 -58 95 -109 177 -50 83 -101 167 -111 188 l-19 37 -80 0 -80 0 0
-364z"/>
<path d="M16257 2933 c-4 -3 -7 -30 -7 -58 l0 -52 38 -7 c20 -3 70 -6 110 -6
l72 0 0 -294 0 -294 76 -4 c42 -2 78 -1 80 1 2 2 4 136 4 298 l0 293 105 0
106 0 -3 63 -3 62 -286 3 c-157 1 -288 -1 -292 -5z"/>
<path d="M16930 2581 l0 -361 70 0 c39 0 73 0 77 0 4 0 6 44 5 98 -1 53 2 113
6 132 7 34 10 35 52 35 l45 0 67 -137 68 -137 82 6 c46 3 84 7 86 8 5 4 -75
161 -116 229 -30 51 -33 60 -19 67 38 22 81 65 93 96 18 43 18 166 0 201 -8
15 -27 39 -43 54 -50 48 -102 59 -295 65 l-178 6 0 -362z m341 200 c33 -34 39
-83 14 -130 -18 -37 -31 -41 -120 -41 -67 0 -73 2 -79 23 -8 29 -8 106 0 146
l7 31 74 0 c69 0 77 -2 104 -29z"/>
<path d="M17550 2688 c0 -339 13 -383 122 -443 49 -27 61 -30 158 -30 97 0
109 2 152 27 57 34 104 90 112 133 4 18 7 151 7 296 l0 264 -80 3 -81 3 0
-270 c0 -268 0 -270 -23 -297 -19 -22 -34 -28 -79 -32 -50 -4 -58 -2 -89 26
l-34 30 -3 271 -3 271 -79 0 -80 0 0 -252z"/>
<path d="M18427 2920 c-79 -25 -117 -57 -158 -132 l-34 -63 0 -150 c0 -131 3
-156 21 -195 28 -61 67 -105 122 -137 41 -24 55 -27 146 -27 90 0 107 3 151
26 68 36 101 73 126 143 25 71 21 75 -74 75 l-67 0 -16 -40 c-22 -56 -56 -80
-111 -80 -54 0 -93 21 -119 64 -16 26 -19 51 -19 166 0 117 3 140 20 170 25
43 99 83 135 75 48 -12 89 -53 101 -102 l12 -45 51 6 c28 3 63 6 79 6 25 0 27
3 21 28 -24 111 -86 182 -182 212 -79 24 -130 24 -205 0z"/>
<path d="M19180 2580 l0 -360 65 -1 c36 -1 71 -2 77 -3 10 -1 12 18 10 71 -2
40 -1 106 3 148 l7 75 134 0 134 0 0 -145 0 -145 80 0 80 0 -2 358 -3 357 -77
3 -78 3 0 -151 0 -150 -134 0 -133 0 -7 38 c-3 20 -6 88 -6 150 l0 112 -75 0
-75 0 0 -360z"/>
<path d="M20860 2578 l0 -363 76 1 76 1 -1 212 c-1 123 2 211 7 211 12 0 36
-38 156 -242 53 -92 103 -171 109 -176 7 -5 47 -7 90 -5 l77 6 -2 356 -3 356
-77 3 -78 3 0 -216 c0 -118 -3 -215 -7 -215 -5 0 -15 12 -24 28 -9 15 -58 95
-109 177 -50 83 -101 167 -111 188 l-19 37 -80 0 -80 0 0 -362z"/>
<path d="M21750 2920 c-65 -25 -124 -82 -157 -148 -27 -54 -28 -63 -28 -197 1
-121 3 -146 22 -186 29 -64 77 -116 137 -147 44 -23 63 -27 141 -27 78 0 97 4
141 27 65 34 106 81 135 155 20 49 24 76 24 178 0 146 -21 209 -91 279 -80 80
-217 108 -324 66z m207 -152 c47 -44 68 -200 41 -305 -7 -30 -24 -59 -50 -85
-32 -32 -45 -38 -79 -38 -57 0 -95 26 -124 84 -21 42 -25 64 -25 140 0 110 10
150 50 198 52 63 124 65 187 6z"/>
<path d="M22280 2580 l0 -360 80 0 80 0 -2 358 -3 357 -77 3 -78 3 0 -361z"/>
<path d="M1618 1933 c-2 -434 -1 -791 2 -794 3 -4 76 -9 163 -12 l157 -5 0
319 0 319 90 0 c89 0 90 0 130 -36 l40 -36 2 -282 3 -281 158 0 158 0 -3 322
-3 321 -30 44 c-17 23 -47 52 -68 63 -41 22 -46 38 -18 61 73 61 100 93 109
129 16 63 24 309 16 490 l-7 165 -158 0 -159 0 0 -277 -1 -278 -34 -40 -34
-40 -96 -3 -95 -4 0 321 0 321 -160 0 -160 0 -2 -787z"/>
<path d="M10372 2144 c-32 -22 -30 -78 3 -100 54 -35 152 4 140 56 -13 55 -92
80 -143 44z"/>
<path d="M12380 2140 c-44 -44 -13 -110 52 -110 86 0 125 54 73 105 -31 32
-96 34 -125 5z"/>
<path d="M21802 2144 c-15 -10 -22 -25 -22 -49 0 -56 57 -81 127 -54 50 19 57
56 18 94 -29 29 -88 34 -123 9z"/>
<path d="M5467 1704 c-4 -4 -7 -45 -7 -91 l0 -83 -80 0 -80 0 0 85 0 85 -52 0
-51 0 6 -97 c4 -54 7 -146 7 -204 l0 -107 45 -4 44 -3 3 85 3 85 78 3 77 3 0
-86 0 -85 40 0 c22 0 42 0 45 0 3 0 6 93 8 207 l2 208 -40 3 c-23 2 -44 0 -48
-4z"/>
<path d="M5761 1688 c-103 -260 -151 -397 -142 -402 4 -3 29 -2 57 2 45 7 49
9 52 37 5 45 14 50 89 50 l68 0 13 -40 c7 -22 18 -43 25 -47 18 -11 87 -10 87
2 0 15 -102 294 -133 363 -25 56 -27 57 -67 57 -33 0 -42 -4 -49 -22z m67
-152 c6 -13 14 -40 17 -60 l7 -36 -42 0 c-35 0 -41 3 -36 16 4 9 11 36 17 60
13 50 21 54 37 20z"/>
<path d="M6067 1704 c-9 -10 -9 -414 1 -415 4 0 26 -2 50 -4 l42 -3 0 119 c0
65 3 119 8 119 4 0 38 -51 76 -113 39 -61 71 -114 73 -116 2 -2 25 -5 53 -5
l50 -1 0 213 0 213 -47 -3 -48 -3 -1 -112 c0 -65 -4 -113 -10 -113 -5 0 -41
51 -80 113 l-71 112 -45 3 c-24 2 -47 0 -51 -4z"/>
<path d="M6605 1691 c-80 -37 -105 -86 -105 -206 0 -138 58 -200 185 -200 84
0 122 22 155 90 93 193 -59 397 -235 316z m114 -62 c54 -51 67 -153 29 -229
-24 -47 -46 -58 -94 -46 -37 10 -54 54 -54 147 0 79 1 82 34 115 40 40 54 42
85 13z"/>
<path d="M6947 1703 c-4 -3 -7 -98 -7 -210 l0 -203 35 -1 c19 -1 41 -2 47 -3
16 -1 23 156 13 312 l-7 112 -37 0 c-21 0 -41 -3 -44 -7z"/>
<path d="M7407 1678 c-8 -18 -31 -78 -51 -133 -21 -55 -51 -134 -67 -176 -16
-42 -29 -79 -29 -83 0 -9 81 -5 103 6 10 5 17 20 17 37 0 39 14 46 90 46 l65
0 13 -41 c14 -43 30 -54 85 -54 15 0 27 4 27 10 0 22 -136 385 -153 408 -5 6
-27 12 -48 12 -34 0 -40 -4 -52 -32z m76 -165 c24 -69 23 -73 -24 -73 -34 0
-40 3 -35 16 4 9 11 36 17 60 6 24 14 44 18 44 4 0 15 -21 24 -47z"/>
<path d="M7717 1703 c-10 -9 -9 -413 1 -414 4 0 26 -2 50 -4 l42 -3 0 73 c0
41 4 76 9 79 24 15 62 -16 91 -73 34 -68 51 -81 110 -81 l41 0 -43 80 c-37 68
-41 82 -30 97 42 60 52 82 52 116 0 98 -60 136 -216 137 -55 0 -104 -3 -107
-7z m207 -85 c21 -29 20 -77 -1 -100 -11 -13 -30 -18 -65 -18 l-48 0 0 54 c0
79 5 86 56 86 33 0 46 -5 58 -22z"/>
<path d="M8205 1691 c-22 -10 -48 -27 -57 -37 -54 -61 -65 -196 -23 -280 34
-69 71 -89 162 -89 85 1 114 17 151 84 31 55 24 71 -30 71 -41 0 -45 -2 -63
-42 -19 -41 -22 -43 -64 -43 -40 0 -47 3 -65 34 -26 45 -28 152 -3 198 41 77
104 78 135 3 15 -34 21 -40 49 -40 17 0 38 -3 47 -6 23 -9 20 14 -10 75 -21
42 -36 57 -68 72 -52 24 -110 24 -161 0z"/>
<path d="M8520 1501 l0 -211 30 -2 c17 -1 38 -2 47 -2 14 -1 16 9 14 66 -4
107 -3 108 89 108 l79 0 3 -87 3 -88 45 0 45 0 3 203 2 202 -25 10 c-15 6 -37
10 -51 10 -24 0 -24 -1 -24 -90 l0 -91 -82 3 -83 3 0 85 0 85 -48 3 -47 3 0
-210z"/>
<path d="M8972 1498 l3 -213 43 -3 42 -3 -2 213 -3 213 -43 3 -42 3 2 -213z"/>
<path d="M9112 1678 c3 -33 3 -33 66 -36 l62 -3 0 -173 0 -173 42 -6 c23 -3
46 -3 51 0 5 3 8 47 6 97 -1 50 -2 128 -1 174 l2 82 63 0 c35 0 66 2 69 5 2 3
3 18 0 35 l-4 30 -180 0 -179 0 3 -32z"/>
<path d="M9537 1703 c-4 -3 -7 -98 -7 -210 l0 -203 28 -1 c25 -1 61 -1 205 1
57 0 57 0 57 30 l0 30 -95 0 -95 0 0 55 0 55 85 0 85 0 0 35 0 35 -85 0 -85 0
0 55 0 55 95 0 95 0 0 35 0 35 -138 0 c-76 0 -142 -3 -145 -7z"/>
<path d="M9975 1692 c-74 -35 -104 -92 -105 -203 0 -51 6 -77 26 -117 34 -68
67 -86 159 -87 82 0 123 22 155 85 31 61 27 70 -28 70 -46 0 -48 -1 -67 -42
-19 -41 -22 -43 -64 -43 -41 0 -47 3 -65 34 -26 45 -27 151 -3 198 41 77 104
78 135 3 15 -34 21 -40 49 -40 17 0 39 -3 48 -7 15 -5 16 -1 10 28 -10 46 -50
104 -83 119 -48 22 -123 23 -167 2z"/>
<path d="M10254 1696 c-15 -39 -1 -51 64 -54 l62 -3 0 -173 c0 -189 -2 -184
60 -182 l35 1 3 177 2 177 63 3 c62 3 62 3 65 36 l3 32 -176 0 c-144 0 -177
-3 -181 -14z"/>
<path d="M10670 1546 c0 -90 4 -176 9 -189 5 -13 27 -35 48 -48 51 -32 161
-34 210 -4 53 32 64 76 61 250 l-3 150 -42 3 -42 3 -3 -159 c-3 -141 -5 -163
-22 -181 -22 -24 -87 -29 -105 -8 -6 8 -12 77 -13 178 l-3 164 -47 3 -48 3 0
-165z"/>
<path d="M11087 1703 c-10 -9 -9 -411 1 -416 4 -2 26 -2 50 1 l42 4 0 62 c0
33 4 67 9 75 18 27 51 1 86 -70 20 -38 39 -70 43 -70 20 -5 112 -5 112 -2 0 3
-8 17 -18 31 -11 15 -31 50 -47 79 l-28 52 31 29 c51 48 55 135 8 185 -14 15
-43 29 -75 36 -57 12 -204 15 -214 4z m165 -63 c44 -13 62 -41 54 -83 -9 -47
-24 -57 -77 -57 l-49 0 0 56 c0 53 12 94 28 94 4 0 24 -5 44 -10z"/>
<path d="M11613 1702 c-6 -4 -21 -30 -33 -57 -31 -71 -118 -305 -126 -337 -6
-27 -5 -28 35 -28 44 0 53 7 79 60 l17 35 70 -1 70 -1 6 -37 c3 -20 9 -39 12
-42 8 -8 87 -15 97 -9 7 4 -52 177 -118 345 -28 71 -31 75 -63 78 -19 1 -39
-1 -46 -6z m57 -184 c5 -18 12 -43 15 -55 7 -21 4 -23 -34 -23 -48 0 -51 11
-21 79 22 49 28 48 40 -1z"/>
<path d="M11905 1698 c-3 -8 -4 -103 -3 -213 l3 -200 55 -3 c30 -2 92 -1 138
3 77 6 82 8 82 30 0 26 -29 35 -121 35 l-59 0 -2 178 -3 177 -43 3 c-28 2 -44
-1 -47 -10z"/>
<path d="M12402 1538 c3 -188 7 -201 62 -234 23 -14 50 -19 106 -19 67 0 80 4
112 29 46 34 50 59 46 251 l-3 140 -42 3 -43 3 -1 -123 c0 -142 -10 -216 -30
-229 -27 -17 -88 -10 -99 10 -5 11 -10 84 -10 165 0 79 -3 151 -6 160 -4 11
-19 16 -51 16 l-45 0 4 -172z"/>
<path d="M12817 1703 c-4 -3 -7 -98 -7 -210 l0 -203 28 0 c15 0 37 -3 50 -6
22 -6 22 -6 22 115 0 66 3 121 8 121 4 0 39 -51 77 -114 l70 -114 53 -3 52 -4
0 213 0 213 -47 -3 -48 -3 0 -112 c0 -69 -4 -113 -10 -112 -6 0 -38 44 -72 97
-33 53 -68 105 -77 115 -16 17 -85 24 -99 10z"/>
<path d="M13267 1704 c-4 -4 -7 -98 -7 -209 l0 -202 43 -6 c23 -3 45 -2 50 2
4 4 6 99 5 212 l-3 204 -40 3 c-23 2 -44 0 -48 -4z"/>
<path d="M13410 1704 c0 -17 144 -410 152 -415 13 -8 90 -1 98 8 4 5 23 55 44
113 20 58 50 141 67 186 40 111 40 114 -21 114 -58 0 -51 11 -101 -159 -19
-63 -39 -116 -44 -118 -6 -2 -16 18 -23 44 -20 76 -52 186 -62 211 -8 19 -17
22 -60 22 -27 0 -50 -3 -50 -6z"/>
<path d="M13860 1494 l0 -215 145 2 145 3 0 33 0 33 -95 0 -95 0 0 55 0 55 85
0 85 0 0 35 0 35 -85 0 -85 0 0 55 0 55 95 0 95 0 0 35 0 35 -145 0 -145 0 0
-216z"/>
<path d="M14214 1697 c-2 -7 -3 -102 -2 -212 l3 -200 45 0 45 0 3 78 c2 66 5
77 21 77 24 0 53 -34 85 -97 15 -29 30 -53 34 -54 25 -3 102 -4 102 -1 0 2
-19 39 -42 81 l-42 78 32 37 c28 32 32 44 32 91 0 101 -58 135 -231 135 -55 0
-81 -4 -85 -13z m199 -75 c19 -17 23 -72 7 -103 -8 -15 -22 -19 -60 -19 l-50
0 0 68 c0 38 3 72 7 75 10 11 76 -4 96 -21z"/>
<path d="M14682 1694 c-54 -20 -75 -52 -74 -112 0 -39 5 -51 31 -74 17 -15 47
-32 68 -38 72 -20 108 -43 111 -71 4 -35 -19 -51 -65 -47 -31 2 -41 8 -53 34
-14 29 -19 31 -62 31 -55 -1 -60 -12 -28 -64 27 -45 58 -62 126 -69 117 -12
184 28 184 112 0 62 -31 94 -118 123 -39 12 -78 31 -87 41 -21 23 -12 55 20
76 29 19 70 2 91 -38 13 -25 17 -26 34 -16 16 10 24 10 41 0 12 -7 24 -11 27
-7 12 12 -38 95 -67 109 -45 24 -129 28 -179 10z"/>
<path d="M15000 1500 c0 -172 3 -210 14 -210 7 0 28 -3 45 -6 l31 -6 0 216 0
216 -45 0 -45 0 0 -210z"/>
<path d="M15150 1675 l0 -35 65 0 65 0 0 -175 c0 -96 3 -175 8 -176 4 0 25 -1
47 -2 l40 -2 -3 105 c-2 58 0 137 3 177 l7 72 61 3 c62 3 62 3 65 36 l3 32
-180 0 -181 0 0 -35z"/>
<path d="M15540 1694 c0 -9 28 -69 62 -133 58 -108 63 -122 68 -196 l5 -80 44
0 44 0 1 70 c1 66 5 78 69 202 37 73 67 137 67 142 0 6 -20 11 -43 11 -52 0
-65 -12 -98 -93 -35 -87 -44 -89 -73 -20 -47 108 -47 108 -99 111 -39 3 -47 0
-47 -14z"/>
<path d="M1272 688 l3 -153 173 -3 172 -2 0 -120 0 -120 450 0 450 0 0 115 c0
101 2 117 18 123 9 4 88 7 175 6 l157 0 0 153 0 153 -800 0 -801 0 3 -152z"/>
</g>
</svg>
